<?xml version="1.0" encoding="UTF-8"?>
<!-- Generator: Adobe Illustrator 26.1.0, SVG Export Plug-In . SVG Version: 6.00 Build 0)  -->
<svg width="858.16" height="100" version="1.1" viewBox="0 0 858.16 100" xml:space="preserve" xmlns="http://www.w3.org/2000/svg" xmlns:cc="http://creativecommons.org/ns#" xmlns:dc="http://purl.org/dc/elements/1.1/" xmlns:rdf="http://www.w3.org/1999/02/22-rdf-syntax-ns#"><metadata><rdf:RDF><cc:Work rdf:about=""><dc:format>image/svg+xml</dc:format><dc:type rdf:resource="http://purl.org/dc/dcmitype/StillImage"/><dc:title/></cc:Work></rdf:RDF></metadata>
<style type="text/css">
	.st0{fill:#F3F5F8;}
	.st1{fill:#EA5046;}
	.st2{fill:#13427A;}
</style>
<g transform="matrix(5.2826 0 0 5.2826 -432.49 -891.76)">
		<polygon class="st0" points="174.65 179.96 177.21 179.96 178.39 179.96 192.27 179.96 193.46 179.96 207.34 179.96 208.53 179.96 223.51 179.96 225.7 169.69 210.71 169.69 209.52 169.69 195.65 169.69 194.45 169.69 180.58 169.69 179.38 169.69 176.84 169.69 164.31 169.69 162.63 169.69 160.44 179.96 162.14 179.96" fill="#f3f5f8"/>
		<path class="st1" d="m242.39 170.12 1.93-1.31h-144.82l-0.19 0.13h2.53l-0.12 0.54h-3.24l-0.35 0.24h3.54l-0.11 0.55h-4.21l-0.58 0.38h4.7l-0.11 0.55h-5.39l-0.76 0.51h6.04l-0.12 0.55h-6.73l-0.97 0.65h7.56l-0.11 0.52h-8.21l-1.15 0.78h9.19l-0.12 0.54h-9.86l-1.32 0.93h10.99l-0.12 0.54h-11.67l-1.51 1.04h12.96l-0.11 0.54h-13.65l-1.75 1.19h15.15l-0.11 0.55h-15.8l-1.92 1.31h144.82l0.18-0.13h-2.53l0.12-0.54h3.24l0.35-0.24h-3.54l0.12-0.55h4.21l0.57-0.38h-4.7l0.11-0.55h5.39l0.76-0.51h-6.04l0.12-0.55h6.73l0.97-0.65h-7.56l0.11-0.52h8.21l1.15-0.78h-9.19l0.12-0.54h9.86l1.33-0.93h-10.99l0.11-0.54h11.67l1.51-1.04h-12.98l0.12-0.54h13.65l1.74-1.19h-15.14l0.12-0.55zm-18.88 9.84h-63.07l2.18-10.27h63.07z" fill="#ea5046"/>
		<g fill="#f3f5f8">
			<polygon class="st0" points="103.47 170.26 116.79 170.26 116.34 172.35 108.18 172.35 107.88 173.76 115.77 173.76 115.33 175.85 107.44 175.85 106.69 179.39 101.54 179.39"/>
			<path class="st0" d="m117.63 170.26-1.94 9.13h5.16l0.76-3.58h3.91l-0.76 3.58h5.16l1.94-9.13zm8.3 3.59h-3.91l0.35-1.64h3.91z"/>
			<polygon class="st0" points="140.24 177.43 140.59 175.81 131.52 175.81 132.7 170.26 146.93 170.26 146.29 173.25 141.13 173.25 141.35 172.21 137.44 172.21 137.09 173.85 146.16 173.85 144.99 179.39 130.77 179.39 131.4 176.38 136.55 176.38 136.33 177.43"/>
			<polygon class="st0" points="147.77 170.26 161.31 170.26 160.86 172.35 156.67 172.35 155.18 179.39 150.02 179.39 151.51 172.35 147.32 172.35"/>
		</g><g fill="#13427a">
		<path class="st2" d="m164.21 170.26-1.94 9.13h5.16l0.68-3.23h8l1.3-1.07 1.03-4.84h-14.23zm8.23 3.94h-3.91l0.42-1.99h3.91z"/>
		<path class="st2" d="m179.28 170.26-1.94 9.13h5.16l0.76-3.58h3.91l-0.76 3.58h5.16l1.94-9.13zm8.3 3.59h-3.91l0.35-1.64h3.91z"/>
		<polygon class="st2" points="203 172.21 199.09 172.21 197.98 177.43 201.89 177.43 202.37 175.19 207.53 175.19 206.64 179.39 192.41 179.39 194.35 170.26 208.58 170.26 207.77 174.05 202.61 174.05"/>
		<polygon class="st2" points="217.36 173.85 217.8 173.47 218.49 170.26 223.65 170.26 222.88 173.85 221.32 175.41 221.71 179.39 216.55 179.39 216.28 175.81 213.4 175.81 212.64 179.39 207.48 179.39 209.42 170.26 214.58 170.26 213.81 173.85"/>
	</g>
	<polygon points="103.68 168.94 103.71 168.94 103.71 168.81"/>
	<g fill="#13427a">
		<path class="st2" d="m127.65 184.41h-0.79l-0.49 2.46h-0.47l0.49-2.46h-0.79l0.08-0.38h2.04z"/>
		<path class="st2" d="m128.29 185.01c0.08-0.09 0.18-0.16 0.28-0.21s0.21-0.07 0.32-0.07c0.2 0 0.34 0.07 0.44 0.22s0.11 0.36 0.06 0.65l-0.26 1.29h-0.47l0.26-1.29c0.04-0.18 0.03-0.3-0.01-0.37s-0.13-0.1-0.25-0.1c-0.08 0-0.15 0.02-0.22 0.06s-0.14 0.09-0.2 0.16l-0.31 1.54h-0.47l0.61-3.05h0.47z"/>
		<path class="st2" d="m130.46 186.92c-0.27 0-0.48-0.1-0.62-0.3s-0.19-0.45-0.14-0.75l0.01-0.08c0.05-0.32 0.17-0.58 0.37-0.77s0.42-0.29 0.67-0.29c0.26 0 0.45 0.09 0.57 0.26s0.15 0.4 0.11 0.69l-0.04 0.28h-1.22c-0.02 0.18 0 0.32 0.07 0.42s0.17 0.16 0.32 0.16c0.11 0 0.21-0.02 0.3-0.05s0.18-0.08 0.27-0.13l0.1 0.31c-0.08 0.07-0.19 0.13-0.32 0.18-0.14 0.04-0.28 0.07-0.45 0.07zm0.24-1.82c-0.1 0-0.19 0.05-0.27 0.14s-0.14 0.21-0.18 0.35v0.01h0.73l0.01-0.05c0.02-0.14 0.01-0.25-0.04-0.33s-0.13-0.12-0.25-0.12z"/>
		<path class="st2" d="m133.03 186.87h-0.47l0.61-3.05h0.47z"/>
		<path class="st2" d="m134.02 186.87h-0.47l0.42-2.11h0.47zm0.53-2.63h-0.47l0.08-0.42h0.47z"/>
		<path class="st2" d="m134.66 185.81c0.07-0.36 0.19-0.63 0.35-0.81s0.36-0.27 0.61-0.27c0.11 0 0.21 0.02 0.29 0.07s0.16 0.12 0.21 0.21l0.08-0.24h0.4l-0.41 2.07c-0.06 0.29-0.18 0.52-0.37 0.67s-0.43 0.23-0.72 0.23c-0.09 0-0.19-0.01-0.3-0.04s-0.2-0.07-0.28-0.12l0.17-0.37c0.06 0.04 0.14 0.07 0.22 0.09s0.17 0.03 0.26 0.03c0.14 0 0.26-0.04 0.36-0.13s0.16-0.21 0.19-0.36l0.02-0.12c-0.07 0.07-0.15 0.12-0.23 0.15s-0.17 0.05-0.27 0.05c-0.23 0-0.4-0.1-0.51-0.31s-0.14-0.46-0.08-0.76zm0.46 0.04c-0.04 0.21-0.04 0.37 0.01 0.5s0.15 0.18 0.3 0.18c0.08 0 0.15-0.02 0.22-0.07s0.13-0.11 0.18-0.19l0.19-0.94c-0.03-0.07-0.07-0.12-0.13-0.16s-0.13-0.06-0.22-0.06c-0.14 0-0.25 0.06-0.34 0.19s-0.16 0.3-0.2 0.51z"/>
		<path class="st2" d="m137.49 185.01c0.08-0.09 0.18-0.16 0.28-0.21s0.21-0.07 0.32-0.07c0.2 0 0.34 0.07 0.44 0.22s0.11 0.36 0.06 0.65l-0.26 1.29h-0.47l0.26-1.29c0.04-0.18 0.03-0.3-0.01-0.37s-0.13-0.1-0.25-0.1c-0.08 0-0.15 0.02-0.22 0.06s-0.14 0.09-0.2 0.16l-0.31 1.54h-0.47l0.61-3.05h0.47z"/>
		<path class="st2" d="m139.9 184.25-0.1 0.51h0.35l-0.07 0.35h-0.35l-0.23 1.17c-0.02 0.09-0.02 0.16 0.01 0.19s0.07 0.05 0.13 0.05c0.03 0 0.06 0 0.1-0.01s0.07-0.01 0.1-0.02l-0.02 0.35c-0.05 0.02-0.11 0.04-0.17 0.05s-0.13 0.02-0.2 0.02c-0.15 0-0.27-0.05-0.35-0.16s-0.1-0.26-0.05-0.48l0.23-1.17h-0.29l0.07-0.35h0.29l0.1-0.51h0.45z"/>
		<path class="st2" d="m140.96 185.04c0.08-0.1 0.18-0.18 0.29-0.24s0.22-0.08 0.34-0.08c0.19 0 0.33 0.07 0.43 0.2s0.11 0.34 0.06 0.62l-0.27 1.33h-0.47l0.27-1.32c0.03-0.17 0.03-0.28-0.02-0.35s-0.13-0.09-0.25-0.09c-0.08 0-0.15 0.02-0.23 0.06s-0.14 0.1-0.2 0.17l-0.3 1.53h-0.47l0.42-2.11h0.43z"/>
		<path class="st2" d="m142.77 186.87h-0.47l0.42-2.11h0.47zm0.53-2.63h-0.47l0.08-0.42h0.47z"/>
		<path class="st2" d="m144.09 185.04c0.08-0.1 0.18-0.18 0.29-0.24s0.22-0.08 0.34-0.08c0.19 0 0.33 0.07 0.43 0.2s0.11 0.34 0.06 0.62l-0.27 1.33h-0.47l0.27-1.32c0.03-0.17 0.03-0.28-0.02-0.35s-0.13-0.09-0.25-0.09c-0.08 0-0.15 0.02-0.23 0.06s-0.14 0.1-0.2 0.17l-0.3 1.53h-0.47l0.42-2.11h0.43z"/>
		<path class="st2" d="m145.54 185.81c0.07-0.36 0.19-0.63 0.35-0.81s0.36-0.27 0.61-0.27c0.11 0 0.21 0.02 0.29 0.07s0.16 0.12 0.21 0.21l0.08-0.24h0.4l-0.41 2.07c-0.06 0.29-0.18 0.52-0.37 0.67s-0.43 0.23-0.72 0.23c-0.09 0-0.19-0.01-0.3-0.04s-0.2-0.07-0.28-0.12l0.17-0.37c0.06 0.04 0.14 0.07 0.22 0.09s0.17 0.03 0.26 0.03c0.14 0 0.26-0.04 0.36-0.13s0.16-0.21 0.19-0.36l0.02-0.12c-0.07 0.07-0.15 0.12-0.23 0.15s-0.17 0.05-0.27 0.05c-0.23 0-0.4-0.1-0.51-0.31s-0.14-0.46-0.08-0.76zm0.46 0.04c-0.04 0.21-0.04 0.37 0.01 0.5s0.15 0.18 0.3 0.18c0.08 0 0.15-0.02 0.22-0.07s0.13-0.11 0.18-0.19l0.19-0.94c-0.03-0.07-0.07-0.12-0.13-0.16s-0.13-0.06-0.22-0.06c-0.14 0-0.25 0.06-0.34 0.19s-0.16 0.3-0.2 0.51z"/>
		<path class="st2" d="m148.64 186.87 0.35-1.76h-0.3l0.07-0.35h0.3l0.05-0.25c0.05-0.25 0.14-0.43 0.29-0.55s0.32-0.18 0.54-0.18c0.04 0 0.08 0 0.13 0.01s0.09 0.02 0.14 0.03l-0.12 0.37c-0.02-0.01-0.05-0.01-0.08-0.01s-0.06-0.01-0.09-0.01c-0.09 0-0.16 0.03-0.22 0.09s-0.1 0.14-0.12 0.25l-0.05 0.25h0.39l-0.07 0.35h-0.39l-0.35 1.76z"/>
		<path class="st2" d="m151 186.87c-0.01-0.04-0.01-0.09-0.01-0.13v-0.13c-0.08 0.09-0.17 0.16-0.28 0.22s-0.21 0.08-0.33 0.08c-0.19 0-0.33-0.06-0.42-0.17s-0.12-0.27-0.08-0.46c0.04-0.22 0.15-0.38 0.32-0.49s0.39-0.16 0.67-0.16h0.31l0.04-0.19c0.02-0.12 0.01-0.21-0.03-0.26s-0.12-0.09-0.23-0.09c-0.09 0-0.17 0.03-0.25 0.08s-0.12 0.12-0.13 0.2h-0.45v-0.01c0.03-0.18 0.13-0.33 0.3-0.45s0.38-0.19 0.63-0.19c0.22 0 0.39 0.06 0.51 0.19s0.16 0.31 0.12 0.54l-0.19 0.94c-0.02 0.09-0.03 0.18-0.04 0.26s0 0.15 0.01 0.23h-0.47zm-0.43-0.34c0.09 0 0.17-0.02 0.26-0.07s0.16-0.1 0.21-0.17l0.07-0.37h-0.32c-0.11 0-0.21 0.03-0.29 0.1s-0.14 0.15-0.15 0.24c-0.02 0.09-0.01 0.15 0.03 0.2s0.1 0.07 0.19 0.07z"/>
		<path class="st2" d="m153.09 186.3c0.01-0.07-0.01-0.14-0.05-0.18s-0.15-0.09-0.3-0.13c-0.23-0.05-0.39-0.13-0.5-0.23s-0.15-0.23-0.12-0.4c0.03-0.18 0.12-0.34 0.28-0.46s0.35-0.18 0.59-0.18 0.41 0.06 0.54 0.19 0.17 0.28 0.14 0.47v0.01h-0.45c0.01-0.09 0-0.17-0.05-0.23s-0.12-0.09-0.23-0.09c-0.1 0-0.18 0.03-0.24 0.08s-0.1 0.11-0.11 0.19 0 0.13 0.05 0.18 0.14 0.08 0.29 0.12c0.24 0.05 0.41 0.13 0.52 0.23s0.14 0.24 0.11 0.41c-0.03 0.2-0.13 0.35-0.29 0.47s-0.37 0.17-0.61 0.17c-0.25 0-0.44-0.07-0.57-0.21s-0.18-0.3-0.14-0.48v-0.01h0.44c-0.02 0.12 0.01 0.21 0.07 0.27s0.15 0.08 0.26 0.08c0.1 0 0.19-0.02 0.26-0.07s0.09-0.12 0.11-0.2z"/>
		<path class="st2" d="m154.94 184.25-0.1 0.51h0.35l-0.07 0.35h-0.35l-0.23 1.17c-0.02 0.09-0.02 0.16 0.01 0.19s0.07 0.05 0.13 0.05c0.03 0 0.06 0 0.1-0.01s0.07-0.01 0.1-0.02l-0.02 0.35c-0.05 0.02-0.11 0.04-0.17 0.05s-0.13 0.02-0.2 0.02c-0.15 0-0.27-0.05-0.35-0.16s-0.1-0.26-0.05-0.48l0.23-1.17h-0.32l0.07-0.35h0.29l0.1-0.51h0.48z"/>
		<path class="st2" d="m156.26 185.81c0.07-0.36 0.19-0.63 0.34-0.81s0.36-0.27 0.61-0.27c0.1 0 0.19 0.02 0.27 0.06s0.15 0.1 0.21 0.18l0.23-1.14h0.47l-0.61 3.05h-0.4l0.01-0.21c-0.08 0.08-0.16 0.14-0.25 0.19s-0.19 0.06-0.29 0.06c-0.23 0-0.4-0.1-0.51-0.31s-0.14-0.46-0.08-0.76zm0.46 0.04c-0.04 0.21-0.04 0.37 0.01 0.5s0.15 0.18 0.3 0.18c0.08 0 0.15-0.02 0.22-0.07s0.13-0.11 0.19-0.19l0.19-0.94c-0.03-0.07-0.07-0.12-0.13-0.16s-0.13-0.06-0.22-0.06c-0.14 0-0.25 0.06-0.34 0.19s-0.16 0.3-0.2 0.51z"/>
		<path class="st2" d="m159.14 186.92c-0.27 0-0.48-0.1-0.62-0.3s-0.19-0.45-0.14-0.75l0.01-0.08c0.05-0.32 0.17-0.58 0.37-0.77s0.42-0.29 0.67-0.29c0.26 0 0.45 0.09 0.57 0.26s0.15 0.4 0.11 0.69l-0.04 0.28h-1.22c-0.02 0.18 0 0.32 0.07 0.42s0.17 0.16 0.32 0.16c0.11 0 0.21-0.02 0.3-0.05s0.18-0.08 0.27-0.13l0.1 0.31c-0.08 0.07-0.19 0.13-0.32 0.18-0.14 0.04-0.29 0.07-0.45 0.07zm0.24-1.82c-0.1 0-0.19 0.05-0.27 0.14s-0.14 0.21-0.18 0.35v0.01h0.73l0.01-0.05c0.02-0.14 0.01-0.25-0.04-0.33s-0.13-0.12-0.25-0.12z"/>
		<path class="st2" d="m160.39 185.81c0.07-0.36 0.19-0.63 0.34-0.81s0.36-0.27 0.61-0.27c0.1 0 0.19 0.02 0.27 0.06s0.15 0.1 0.21 0.18l0.23-1.14h0.47l-0.61 3.05h-0.4l0.01-0.21c-0.08 0.08-0.16 0.14-0.25 0.19s-0.19 0.06-0.29 0.06c-0.23 0-0.4-0.1-0.51-0.31s-0.14-0.46-0.08-0.76zm0.46 0.04c-0.04 0.21-0.04 0.37 0.01 0.5s0.15 0.18 0.3 0.18c0.08 0 0.15-0.02 0.22-0.07s0.13-0.11 0.19-0.19l0.19-0.94c-0.03-0.07-0.07-0.12-0.13-0.16s-0.13-0.06-0.22-0.06c-0.14 0-0.25 0.06-0.34 0.19s-0.16 0.3-0.2 0.51z"/>
		<path class="st2" d="m163.64 186.87 0.03-0.27c-0.08 0.1-0.17 0.18-0.28 0.23s-0.22 0.08-0.34 0.08c-0.2 0-0.35-0.07-0.44-0.22s-0.11-0.37-0.05-0.67l0.25-1.26h0.46l-0.25 1.27c-0.04 0.2-0.04 0.33 0 0.4s0.11 0.1 0.22 0.1c0.1 0 0.18-0.02 0.26-0.06s0.15-0.1 0.21-0.18l0.3-1.52h0.47l-0.42 2.11h-0.42z"/>
		<path class="st2" d="m166.45 185.93c-0.07 0.33-0.18 0.57-0.33 0.74s-0.35 0.25-0.6 0.25c-0.11 0-0.2-0.02-0.29-0.06s-0.16-0.1-0.21-0.17l-0.2 1.01h-0.47l0.58-2.93h0.42l-0.02 0.21c0.08-0.08 0.16-0.14 0.25-0.18s0.19-0.06 0.29-0.06c0.23 0 0.4 0.11 0.51 0.34s0.13 0.5 0.07 0.83zm-0.46-0.04c0.05-0.23 0.04-0.42-0.01-0.56s-0.15-0.22-0.3-0.22c-0.08 0-0.15 0.02-0.22 0.07s-0.13 0.11-0.18 0.19l-0.19 0.97c0.03 0.06 0.07 0.11 0.13 0.15s0.14 0.05 0.23 0.05c0.14 0 0.25-0.05 0.34-0.16s0.15-0.26 0.19-0.45z"/>
		<path class="st2" d="m167.15 186.87h-0.47l0.61-3.05h0.47z"/>
		<path class="st2" d="m168.15 186.87h-0.47l0.42-2.11h0.47zm0.53-2.63h-0.47l0.08-0.42h0.47z"/>
		<path class="st2" d="m169.56 186.53c0.1 0 0.19-0.03 0.27-0.1s0.13-0.15 0.15-0.26h0.42v0.01c-0.03 0.21-0.13 0.38-0.31 0.52s-0.38 0.21-0.6 0.21c-0.28 0-0.49-0.1-0.62-0.3s-0.17-0.46-0.12-0.76l0.01-0.07c0.05-0.32 0.17-0.57 0.35-0.77s0.43-0.29 0.72-0.29c0.23 0 0.41 0.07 0.54 0.22s0.17 0.34 0.13 0.56v0.01h-0.43c0.02-0.12 0-0.22-0.05-0.3s-0.14-0.12-0.25-0.12c-0.15 0-0.28 0.07-0.37 0.2s-0.15 0.29-0.18 0.48l-0.01 0.07c-0.03 0.21-0.03 0.37 0.02 0.5 0.06 0.13 0.17 0.19 0.33 0.19z"/>
		<path class="st2" d="m171.81 186.87c-0.01-0.04-0.01-0.09-0.01-0.13v-0.13c-0.08 0.09-0.17 0.16-0.28 0.22s-0.21 0.08-0.33 0.08c-0.19 0-0.33-0.06-0.42-0.17s-0.12-0.27-0.08-0.46c0.04-0.22 0.15-0.38 0.32-0.49s0.39-0.16 0.67-0.16h0.31l0.04-0.19c0.02-0.12 0.01-0.21-0.03-0.26s-0.12-0.09-0.23-0.09c-0.09 0-0.17 0.03-0.25 0.08s-0.12 0.12-0.13 0.2h-0.45v-0.01c0.03-0.18 0.13-0.33 0.3-0.45s0.38-0.19 0.63-0.19c0.22 0 0.39 0.06 0.51 0.19s0.16 0.31 0.12 0.54l-0.19 0.94c-0.02 0.09-0.03 0.18-0.04 0.26s0 0.15 0.01 0.23h-0.47zm-0.43-0.34c0.09 0 0.17-0.02 0.26-0.07s0.16-0.1 0.21-0.17l0.07-0.37h-0.32c-0.11 0-0.21 0.03-0.29 0.1s-0.14 0.15-0.15 0.24c-0.02 0.09-0.01 0.15 0.03 0.2s0.1 0.07 0.19 0.07z"/>
		<path class="st2" d="m173.79 184.25-0.1 0.51h0.35l-0.07 0.35h-0.35l-0.23 1.17c-0.02 0.09-0.02 0.16 0.01 0.19s0.07 0.05 0.13 0.05c0.03 0 0.06 0 0.1-0.01s0.07-0.01 0.1-0.02l-0.02 0.35c-0.05 0.02-0.11 0.04-0.17 0.05s-0.13 0.02-0.2 0.02c-0.15 0-0.27-0.05-0.35-0.16s-0.1-0.26-0.05-0.48l0.23-1.17h-0.29l0.07-0.35h0.29l0.1-0.51h0.45z"/>
		<path class="st2" d="m174.52 186.87h-0.47l0.42-2.11h0.47zm0.53-2.63h-0.47l0.08-0.42h0.47z"/>
		<path class="st2" d="m175.15 185.8c0.05-0.33 0.17-0.59 0.36-0.78s0.43-0.29 0.71-0.29c0.27 0 0.48 0.1 0.61 0.3s0.18 0.46 0.13 0.77l-0.01 0.04c-0.05 0.33-0.17 0.59-0.36 0.79s-0.43 0.29-0.71 0.29c-0.27 0-0.48-0.1-0.61-0.3s-0.18-0.46-0.12-0.77zm0.46 0.04c-0.04 0.21-0.03 0.38 0.02 0.51 0.05 0.12 0.15 0.19 0.3 0.19 0.14 0 0.26-0.07 0.36-0.2s0.16-0.3 0.19-0.5l0.01-0.04c0.03-0.21 0.02-0.38-0.03-0.5-0.05-0.13-0.15-0.19-0.3-0.19-0.14 0-0.26 0.07-0.36 0.2s-0.16 0.3-0.19 0.5z"/>
		<path class="st2" d="m177.97 185.04c0.08-0.1 0.18-0.18 0.29-0.24s0.22-0.08 0.34-0.08c0.19 0 0.33 0.07 0.43 0.2s0.11 0.34 0.06 0.62l-0.27 1.33h-0.47l0.27-1.32c0.03-0.17 0.03-0.28-0.02-0.35s-0.13-0.09-0.25-0.09c-0.08 0-0.15 0.02-0.23 0.06s-0.14 0.1-0.2 0.17l-0.3 1.53h-0.47l0.42-2.11h0.43z"/>
		<path class="st2" d="m181.15 186.53c0.1 0 0.19-0.03 0.27-0.1s0.13-0.15 0.15-0.26h0.42v0.01c-0.03 0.21-0.13 0.38-0.31 0.52s-0.38 0.21-0.6 0.21c-0.28 0-0.49-0.1-0.62-0.3s-0.17-0.46-0.12-0.76l0.01-0.07c0.05-0.32 0.17-0.57 0.35-0.77s0.43-0.29 0.72-0.29c0.23 0 0.41 0.07 0.54 0.22s0.17 0.34 0.13 0.56v0.01h-0.43c0.02-0.12 0-0.22-0.05-0.3s-0.14-0.12-0.25-0.12c-0.15 0-0.28 0.07-0.37 0.2s-0.15 0.29-0.18 0.48l-0.01 0.07c-0.03 0.21-0.03 0.37 0.02 0.5 0.06 0.13 0.16 0.19 0.33 0.19z"/>
		<path class="st2" d="m182.34 185.8c0.05-0.33 0.17-0.59 0.36-0.78s0.43-0.29 0.71-0.29c0.27 0 0.48 0.1 0.61 0.3s0.18 0.46 0.13 0.77l-0.01 0.04c-0.05 0.33-0.17 0.59-0.36 0.79s-0.43 0.29-0.71 0.29c-0.27 0-0.48-0.1-0.61-0.3s-0.18-0.46-0.12-0.77zm0.46 0.04c-0.04 0.21-0.03 0.38 0.02 0.51 0.05 0.12 0.15 0.19 0.3 0.19 0.14 0 0.26-0.07 0.36-0.2s0.16-0.3 0.19-0.5l0.01-0.04c0.03-0.21 0.02-0.38-0.03-0.5-0.05-0.13-0.15-0.19-0.3-0.19-0.14 0-0.26 0.07-0.36 0.2s-0.16 0.3-0.19 0.5z"/>
		<path class="st2" d="m185.17 185.01c0.08-0.09 0.17-0.17 0.28-0.21s0.22-0.07 0.35-0.07c0.11 0 0.21 0.03 0.29 0.09s0.13 0.15 0.16 0.27c0.08-0.11 0.18-0.2 0.29-0.27s0.23-0.09 0.37-0.09c0.19 0 0.32 0.07 0.41 0.22s0.11 0.37 0.05 0.66l-0.25 1.27h-0.47l0.26-1.28c0.04-0.19 0.04-0.32 0-0.39s-0.12-0.1-0.23-0.1c-0.08 0-0.16 0.03-0.24 0.08s-0.14 0.13-0.19 0.22c0 0.02-0.01 0.04-0.01 0.05v0.03l-0.27 1.37h-0.47l0.26-1.28c0.04-0.19 0.03-0.31 0-0.38s-0.12-0.11-0.23-0.11c-0.08 0-0.15 0.02-0.22 0.06s-0.13 0.09-0.18 0.16l-0.31 1.55h-0.47l0.42-2.11h0.43z"/>
		<path class="st2" d="m189.52 185.93c-0.07 0.33-0.18 0.57-0.33 0.74s-0.35 0.25-0.6 0.25c-0.11 0-0.2-0.02-0.29-0.06s-0.16-0.1-0.21-0.17l-0.2 1.01h-0.47l0.58-2.93h0.42l-0.02 0.21c0.08-0.08 0.16-0.14 0.25-0.18s0.19-0.06 0.29-0.06c0.23 0 0.4 0.11 0.51 0.34s0.13 0.5 0.07 0.83zm-0.45-0.04c0.05-0.23 0.04-0.42-0.01-0.56s-0.15-0.22-0.3-0.22c-0.08 0-0.15 0.02-0.22 0.07s-0.13 0.11-0.18 0.19l-0.19 0.97c0.03 0.06 0.07 0.11 0.13 0.15s0.14 0.05 0.23 0.05c0.14 0 0.25-0.05 0.34-0.16s0.15-0.26 0.19-0.45z"/>
		<path class="st2" d="m191.07 185.2-0.21-0.01c-0.08 0-0.15 0.02-0.21 0.06s-0.12 0.09-0.16 0.16l-0.29 1.46h-0.47l0.42-2.11h0.43l-0.03 0.28c0.07-0.1 0.15-0.18 0.23-0.24s0.18-0.08 0.28-0.08c0.03 0 0.05 0 0.08 0.01s0.05 0.01 0.07 0.02z"/>
		<path class="st2" d="m191.92 186.92c-0.27 0-0.48-0.1-0.62-0.3s-0.19-0.45-0.14-0.75l0.01-0.08c0.05-0.32 0.17-0.58 0.37-0.77s0.42-0.29 0.67-0.29c0.26 0 0.45 0.09 0.57 0.26s0.15 0.4 0.11 0.69l-0.04 0.28h-1.22c-0.02 0.18 0 0.32 0.07 0.42s0.17 0.16 0.32 0.16c0.11 0 0.21-0.02 0.3-0.05s0.18-0.08 0.27-0.13l0.1 0.31c-0.08 0.07-0.19 0.13-0.32 0.18-0.14 0.04-0.28 0.07-0.45 0.07zm0.24-1.82c-0.1 0-0.19 0.05-0.27 0.14s-0.14 0.21-0.18 0.35v0.01h0.73l0.01-0.05c0.02-0.14 0.01-0.25-0.04-0.33s-0.13-0.12-0.25-0.12z"/>
		<path class="st2" d="m194.26 186.3c0.01-0.07-0.01-0.14-0.05-0.18s-0.15-0.09-0.3-0.13c-0.23-0.05-0.39-0.13-0.5-0.23s-0.15-0.23-0.12-0.4c0.03-0.18 0.12-0.34 0.28-0.46s0.35-0.18 0.59-0.18 0.41 0.06 0.54 0.19 0.17 0.28 0.14 0.47v0.01h-0.45c0.01-0.09 0-0.17-0.05-0.23s-0.12-0.09-0.23-0.09c-0.1 0-0.18 0.03-0.24 0.08s-0.1 0.11-0.11 0.19 0 0.13 0.05 0.18 0.14 0.08 0.29 0.12c0.24 0.05 0.41 0.13 0.52 0.23s0.14 0.24 0.11 0.41c-0.03 0.2-0.13 0.35-0.29 0.47s-0.37 0.17-0.61 0.17c-0.25 0-0.44-0.07-0.57-0.21s-0.18-0.3-0.14-0.48v-0.01h0.44c-0.02 0.12 0.01 0.21 0.07 0.27s0.15 0.08 0.26 0.08c0.1 0 0.19-0.02 0.26-0.07s0.1-0.12 0.11-0.2z"/>
		<path class="st2" d="m196.22 186.3c0.01-0.07-0.01-0.14-0.05-0.18s-0.15-0.09-0.3-0.13c-0.23-0.05-0.39-0.13-0.5-0.23s-0.15-0.23-0.12-0.4c0.03-0.18 0.12-0.34 0.28-0.46s0.35-0.18 0.59-0.18 0.41 0.06 0.54 0.19 0.17 0.28 0.14 0.47v0.01h-0.45c0.01-0.09 0-0.17-0.05-0.23s-0.12-0.09-0.23-0.09c-0.1 0-0.18 0.03-0.24 0.08s-0.1 0.11-0.11 0.19 0 0.13 0.05 0.18 0.14 0.08 0.29 0.12c0.24 0.05 0.41 0.13 0.52 0.23s0.14 0.24 0.11 0.41c-0.03 0.2-0.13 0.35-0.29 0.47s-0.37 0.17-0.61 0.17c-0.25 0-0.44-0.07-0.57-0.21s-0.18-0.3-0.14-0.48v-0.01h0.44c-0.02 0.12 0.01 0.21 0.07 0.27s0.15 0.08 0.26 0.08c0.1 0 0.19-0.02 0.26-0.07s0.1-0.12 0.11-0.2z"/>
		<path class="st2" d="m197.09 185.8c0.05-0.33 0.17-0.59 0.36-0.78s0.43-0.29 0.71-0.29c0.27 0 0.48 0.1 0.61 0.3s0.18 0.46 0.13 0.77l-0.01 0.04c-0.05 0.33-0.17 0.59-0.36 0.79s-0.43 0.29-0.71 0.29c-0.27 0-0.48-0.1-0.61-0.3s-0.18-0.46-0.12-0.77zm0.46 0.04c-0.04 0.21-0.03 0.38 0.02 0.51 0.05 0.12 0.15 0.19 0.3 0.19 0.14 0 0.26-0.07 0.36-0.2s0.16-0.3 0.19-0.5l0.01-0.04c0.03-0.21 0.02-0.38-0.03-0.5-0.05-0.13-0.15-0.19-0.3-0.19-0.14 0-0.26 0.07-0.36 0.2s-0.16 0.3-0.19 0.5z"/>
		<path class="st2" d="m200.44 185.2-0.21-0.01c-0.08 0-0.15 0.02-0.21 0.06s-0.12 0.09-0.16 0.16l-0.29 1.46h-0.47l0.42-2.11h0.43l-0.03 0.28c0.07-0.1 0.15-0.18 0.23-0.24s0.18-0.08 0.28-0.08c0.03 0 0.05 0 0.08 0.01s0.05 0.01 0.07 0.02z"/>
	</g>
</g></svg>
